<?xml version="1.0" encoding="UTF-8" standalone="no"?>
<!-- Created with Inkscape (http://www.inkscape.org/) -->

<svg
   width="1024"
   height="1024"
   viewBox="0 0 270.93333 270.93333"
   version="1.1"
   id="svg1"
   inkscape:version="1.3.2 (1:1.3.2+202311252150+091e20ef0f)"
   sodipodi:docname="MainLogo.svg"
   inkscape:export-filename="MainLogo.png"
   inkscape:export-xdpi="96"
   inkscape:export-ydpi="96"
   xmlns:inkscape="http://www.inkscape.org/namespaces/inkscape"
   xmlns:sodipodi="http://sodipodi.sourceforge.net/DTD/sodipodi-0.dtd"
   xmlns:xlink="http://www.w3.org/1999/xlink"
   xmlns="http://www.w3.org/2000/svg"
   xmlns:svg="http://www.w3.org/2000/svg">
  <sodipodi:namedview
     id="namedview1"
     pagecolor="#ffffff"
     bordercolor="#999999"
     borderopacity="1"
     inkscape:showpageshadow="2"
     inkscape:pageopacity="0"
     inkscape:pagecheckerboard="0"
     inkscape:deskcolor="#d1d1d1"
     inkscape:document-units="mm"
     inkscape:zoom="1.0636785"
     inkscape:cx="396.26637"
     inkscape:cy="561.25984"
     inkscape:window-width="2560"
     inkscape:window-height="1379"
     inkscape:window-x="0"
     inkscape:window-y="0"
     inkscape:window-maximized="1"
     inkscape:current-layer="layer1" />
  <defs
     id="defs1">
    <linearGradient
       id="linearGradient1"
       inkscape:collect="always">
      <stop
         style="stop-color:#f40b37;stop-opacity:1;"
         offset="0"
         id="stop1" />
      <stop
         style="stop-color:#ffd1ff;stop-opacity:1;"
         offset="1"
         id="stop2" />
    </linearGradient>
    <inkscape:path-effect
       effect="fillet_chamfer"
       id="path-effect12"
       is_visible="true"
       lpeversion="1"
       nodesatellites_param="F,0,0,1,0,17.536219,0,1 @ F,0,1,1,0,42.258097,0,1 @ F,0,0,1,0,52.079064,0,1 @ F,0,0,1,0,42.258097,0,1 | F,0,0,1,0,0,0,1 @ F,0,0,1,0,0,0,1 @ F,0,0,1,0,0,0,1 @ F,0,0,1,0,0,0,1 @ F,0,0,1,0,0,0,1 @ F,0,0,1,0,0,0,1 @ F,0,0,1,0,0,0,1 @ F,0,0,1,0,0,0,1 @ F,0,0,1,0,0,0,1 | F,0,0,1,0,0,0,1 @ F,0,0,1,0,0,0,1 @ F,0,0,1,0,0,0,1 @ F,0,0,1,0,0,0,1 @ F,0,0,1,0,0,0,1 @ F,0,0,1,0,0,0,1 @ F,0,0,1,0,0,0,1 @ F,0,0,1,0,0,0,1 @ F,0,0,1,0,0,0,1 | F,0,0,1,0,0,0,1 @ F,0,0,1,0,0,0,1 @ F,0,0,1,0,0,0,1 @ F,0,0,1,0,0,0,1 @ F,0,0,1,0,0,0,1 @ F,0,0,1,0,0,0,1 @ F,0,0,1,0,0,0,1 @ F,0,0,1,0,0,0,1 @ F,0,0,1,0,0,0,1 @ F,0,0,1,0,0,0,1 | F,0,0,1,0,0,0,1 @ F,0,0,1,0,0,0,1 @ F,0,0,1,0,0,0,1 @ F,0,0,1,0,0,0,1 @ F,0,0,1,0,0,0,1 @ F,0,0,1,0,0,0,1 @ F,0,0,1,0,0,0,1 @ F,0,0,1,0,0,0,1 @ F,0,0,1,0,0,0,1 @ F,0,0,1,0,0,0,1 @ F,0,0,1,0,0,0,1 @ F,0,0,1,0,0,0,1 | F,0,0,1,0,0,0,1 @ F,0,0,1,0,0,0,1 @ F,0,0,1,0,0,0,1 @ F,0,0,1,0,0,0,1 @ F,0,0,1,0,0,0,1 | F,0,0,1,0,0,0,1 @ F,0,0,1,0,0,0,1 @ F,0,0,1,0,0,0,1 @ F,0,0,1,0,0,0,1 @ F,0,0,1,0,0,0,1 @ F,0,0,1,0,0,0,1 @ F,0,0,1,0,0,0,1 @ F,0,0,1,0,0,0,1 @ F,0,0,1,0,0,0,1 @ F,0,0,1,0,0,0,1 @ F,0,0,1,0,0,0,1 | F,0,0,1,0,0,0,1 @ F,0,0,1,0,0,0,1 @ F,0,0,1,0,0,0,1 @ F,0,0,1,0,0,0,1 @ F,0,0,1,0,0,0,1 @ F,0,0,1,0,0,0,1 @ F,0,0,1,0,0,0,1 @ F,0,0,1,0,0,0,1 @ F,0,0,1,0,0,0,1 @ F,0,0,1,0,0,0,1"
       radius="0"
       unit="px"
       method="auto"
       mode="F"
       chamfer_steps="1"
       flexible="false"
       use_knot_distance="true"
       apply_no_radius="true"
       apply_with_radius="true"
       only_selected="false"
       hide_knots="false" />
    <linearGradient
       inkscape:collect="always"
       xlink:href="#linearGradient1"
       id="linearGradient2"
       x1="255.2338"
       y1="367.32567"
       x2="748.36635"
       y2="367.32567"
       gradientUnits="userSpaceOnUse" />
  </defs>
  <g
     inkscape:label="Capa 1"
     inkscape:groupmode="layer"
     id="layer1">
    <g
       id="g12"
       transform="matrix(0.47701498,0,0,0.47701498,-103.89949,-39.753179)"
       style="fill:url(#linearGradient2);stroke:none;stroke-opacity:1">
      <path
         style="fill:url(#linearGradient2);fill-opacity:1;stroke:none;stroke-opacity:1"
         d="M 487.9222,639.92436 C 367.46112,551.46387 262.11533,629.03946 255.24092,236.07834 c -0.40822,-23.33454 16.79994,-50.2314 37.96344,-60.06968 l 161.27855,-74.97363 a 112.06908,112.06908 179.99221 0 1 94.45723,-0.0129 l 161.44348,74.9969 c 21.16617,9.83253 38.37589,36.72472 37.9759,60.05951 -6.73741,393.04306 -110.18106,303.74152 -233.35915,403.24417 -7.53271,6.08489 -19.2733,6.3331 -27.07817,0.6016 z m -7.91338,-106.78747 c 7.08738,-3.96348 18.17501,-12.30232 28.06111,-21.10432 8.70545,-7.75082 12.06817,-9.5896 16.34973,-8.94023 4.69122,0.71149 19.03281,10.45068 23.72677,16.11252 6.49939,7.83955 11.11659,9.22622 16.27314,4.88727 8.22782,-6.92325 -0.0948,-20.52887 -19.77941,-32.33509 -21.24017,-12.73917 -29.21885,-11.99601 -46.92072,4.37034 -11.04993,10.21627 -18.92191,16.22497 -27.49963,20.99054 -9.89643,5.49822 -12.07244,11.31644 -6.47507,17.3131 3.19706,3.42511 8.59306,2.99575 16.26408,-1.29413 z M 445.9963,508.47935 c 25.92328,-15.10506 40.09561,-25.96103 65.24214,-49.97531 15.51033,-14.81195 16.22518,-14.67835 34.67089,6.47963 26.81896,30.76244 46.13194,41.60539 52.01681,29.20396 3.36133,-7.08348 1.77187,-10.3676 -7.21879,-14.91534 -8.07437,-4.08425 -15.17464,-10.158 -25.21105,-21.56618 -31.73022,-36.06707 -41.48132,-37.56506 -69.74494,-10.7144 -20.92487,19.87879 -43.00929,36.28056 -64.13491,47.63203 -11.90734,6.3982 -14.1459,12.49205 -6.84549,18.63494 4.42699,3.72507 8.01771,2.91654 21.22534,-4.77933 z m -26.94715,-27.30138 c 53.90186,-32.44468 89.1896,-66.18687 104.47585,-99.89997 33.58183,-74.06313 -26.72521,-121.73902 -68.53515,-54.18065 -19.08661,30.84101 -47.45659,53.90941 -84.99355,69.11058 -10.93207,4.42711 -13.82735,8.36701 -11.35673,15.45422 7.59005,21.77284 83.5722,-27.79122 111.88072,-72.98113 14.32155,-22.862 20.80574,-27.41557 32.66091,-22.93638 17.24846,6.51692 12.20145,49.70917 -9.11633,78.0175 -18.9287,25.13582 -57.70303,56.68018 -93.56857,76.1215 -9.55881,5.18146 -11.33308,10.90888 -5.372,17.34099 4.02937,4.34776 8.55731,3.20339 23.92485,-6.04666 z m 200.46717,-14.0073 c 9.30937,-4.81407 6.94792,-11.88454 -7.52002,-22.51587 -17.16224,-12.61116 -30.47361,-30.37933 -37.20977,-49.66806 -2.72597,-7.80572 -2.72597,-7.80572 -2.88887,-43.84223 -0.24961,-55.21747 -7.93471,-73.1826 -38.40136,-89.76922 -39.26398,-21.37606 -77.07808,-7.59449 -107.83497,39.30109 -18.21546,27.77345 -40.95571,46.65518 -64.39604,53.46947 -9.5773,2.78419 -13.31284,8.72313 -9.31988,14.81717 11.911,18.17848 61.12357,-14.27255 91.41872,-60.282 28.35592,-43.06432 71.49766,-50.20489 97.44271,-16.12816 10.38302,13.63726 11.0049,16.97645 11.10499,59.62816 0.11995,51.12225 5.3953,66.9661 30.88186,92.74985 17.48249,17.68635 30.39997,25.50937 36.72263,22.2398 z M 394.17211,450.74633 c 44.68993,-22.43038 95.65854,-69.75598 89.9192,-83.49217 -3.44067,-8.23467 -11.05493,-6.48402 -20.42869,4.69689 -21.41458,25.54306 -50.47248,47.82703 -84.89812,65.10682 -8.1369,4.08427 -9.32985,6.13632 -7.37004,12.67756 2.58916,8.64187 7.16886,8.84512 22.77765,1.0109 z M 639.83734,432.6274 c 7.38495,-5.80901 5.8782,-10.97228 -6.69627,-22.94638 -19.2217,-18.30397 -19.60283,-19.51254 -20.6556,-65.5 -3.05476,-133.43889 -130.74517,-185.12414 -206.29493,-83.50199 -3.95683,5.32234 -10.11157,13.68761 -13.67718,18.58949 -8.83465,12.14553 -19.86953,23.47577 -28.22478,28.98023 -17.36261,11.43854 -10.83049,27.96585 7.24522,18.3316 12.93602,-6.89483 25.52842,-19.77341 41.86776,-42.81927 36.20359,-51.06343 76.30611,-66.05829 123.24635,-46.08343 39.95614,17.00287 54.50052,44.83691 55.91347,107.00337 1.17121,51.53051 4.28371,60.06757 29.92791,82.08734 10.15817,8.72247 12.64153,9.56119 17.34805,5.85904 z m 9.50411,-41.55275 c 3.07547,-3.57545 2.8572,-80.43928 -0.27503,-96.84902 -10.53468,-55.19127 -50.82722,-101.0106 -104.13747,-118.42165 -10.65077,-3.47852 -15.73606,-4.60714 -29.93265,-6.64316 -59.72883,-8.5661 -151.5,47.76171 -151.5,92.9885 0,12.90937 13.50626,13.46275 19.10571,0.7828 37.38222,-84.65211 153.64044,-100.10482 216.06215,-28.71836 26.12233,29.8739 32.49906,51.82688 32.73404,112.69238 0.078,20.19882 0.31936,37.29882 0.53642,38 0.21705,0.70118 0.66294,2.501 0.99086,3.9996 1.3366,6.10814 11.83454,7.49515 16.41597,2.16891 z"
         id="path1"
         sodipodi:nodetypes="cccscsssssssssssssssssssssssssssssssssssssssssssssssssssssssssssssssssssssssss"
         inkscape:path-effect="#path-effect12"
         inkscape:original-d="m 501.70854,650.75707 c -130.283,-109.37363 -246.82409,0 -246.82409,-456.93462 0,0 0,0 246.82409,-114.74122 l 246.99983,114.74122 c 0,456.93462 -113.77671,335.07802 -246.99983,456.93462 z M 480.00882,533.13689 c 7.08738,-3.96348 18.17501,-12.30232 28.06111,-21.10432 8.70545,-7.75082 12.06817,-9.5896 16.34973,-8.94023 4.69122,0.71149 19.03281,10.45068 23.72677,16.11252 6.49939,7.83955 11.11659,9.22622 16.27314,4.88727 8.22782,-6.92325 -0.0948,-20.52887 -19.77941,-32.33509 -21.24017,-12.73917 -29.21885,-11.99601 -46.92072,4.37034 -11.04993,10.21627 -18.92191,16.22497 -27.49963,20.99054 -9.89643,5.49822 -12.07244,11.31644 -6.47507,17.3131 3.19706,3.42511 8.59306,2.99575 16.26408,-1.29413 z M 445.9963,508.47935 c 25.92328,-15.10506 40.09561,-25.96103 65.24214,-49.97531 15.51033,-14.81195 16.22518,-14.67835 34.67089,6.47963 26.81896,30.76244 46.13194,41.60539 52.01681,29.20396 3.36133,-7.08348 1.77187,-10.3676 -7.21879,-14.91534 -8.07437,-4.08425 -15.17464,-10.158 -25.21105,-21.56618 -31.73022,-36.06707 -41.48132,-37.56506 -69.74494,-10.7144 -20.92487,19.87879 -43.00929,36.28056 -64.13491,47.63203 -11.90734,6.3982 -14.1459,12.49205 -6.84549,18.63494 4.42699,3.72507 8.01771,2.91654 21.22534,-4.77933 z m -26.94715,-27.30138 c 53.90186,-32.44468 89.1896,-66.18687 104.47585,-99.89997 33.58183,-74.06313 -26.72521,-121.73902 -68.53515,-54.18065 -19.08661,30.84101 -47.45659,53.90941 -84.99355,69.11058 -10.93207,4.42711 -13.82735,8.36701 -11.35673,15.45422 7.59005,21.77284 83.5722,-27.79122 111.88072,-72.98113 14.32155,-22.862 20.80574,-27.41557 32.66091,-22.93638 17.24846,6.51692 12.20145,49.70917 -9.11633,78.0175 -18.9287,25.13582 -57.70303,56.68018 -93.56857,76.1215 -9.55881,5.18146 -11.33308,10.90888 -5.372,17.34099 4.02937,4.34776 8.55731,3.20339 23.92485,-6.04666 z m 200.46717,-14.0073 c 9.30937,-4.81407 6.94792,-11.88454 -7.52002,-22.51587 -17.16224,-12.61116 -30.47361,-30.37933 -37.20977,-49.66806 -2.72597,-7.80572 -2.72597,-7.80572 -2.88887,-43.84223 -0.24961,-55.21747 -7.93471,-73.1826 -38.40136,-89.76922 -39.26398,-21.37606 -77.07808,-7.59449 -107.83497,39.30109 -18.21546,27.77345 -40.95571,46.65518 -64.39604,53.46947 -9.5773,2.78419 -13.31284,8.72313 -9.31988,14.81717 11.911,18.17848 61.12357,-14.27255 91.41872,-60.282 28.35592,-43.06432 71.49766,-50.20489 97.44271,-16.12816 10.38302,13.63726 11.0049,16.97645 11.10499,59.62816 0.11995,51.12225 5.3953,66.9661 30.88186,92.74985 17.48249,17.68635 30.39997,25.50937 36.72263,22.2398 z M 394.17211,450.74633 c 44.68993,-22.43038 95.65854,-69.75598 89.9192,-83.49217 -3.44067,-8.23467 -11.05493,-6.48402 -20.42869,4.69689 -21.41458,25.54306 -50.47248,47.82703 -84.89812,65.10682 -8.1369,4.08427 -9.32985,6.13632 -7.37004,12.67756 2.58916,8.64187 7.16886,8.84512 22.77765,1.0109 z M 639.83734,432.6274 c 7.38495,-5.80901 5.8782,-10.97228 -6.69627,-22.94638 -19.2217,-18.30397 -19.60283,-19.51254 -20.6556,-65.5 -3.05476,-133.43889 -130.74517,-185.12414 -206.29493,-83.50199 -3.95683,5.32234 -10.11157,13.68761 -13.67718,18.58949 -8.83465,12.14553 -19.86953,23.47577 -28.22478,28.98023 -17.36261,11.43854 -10.83049,27.96585 7.24522,18.3316 12.93602,-6.89483 25.52842,-19.77341 41.86776,-42.81927 36.20359,-51.06343 76.30611,-66.05829 123.24635,-46.08343 39.95614,17.00287 54.50052,44.83691 55.91347,107.00337 1.17121,51.53051 4.28371,60.06757 29.92791,82.08734 10.15817,8.72247 12.64153,9.56119 17.34805,5.85904 z m 9.50411,-41.55275 c 3.07547,-3.57545 2.8572,-80.43928 -0.27503,-96.84902 -10.53468,-55.19127 -50.82722,-101.0106 -104.13747,-118.42165 -10.65077,-3.47852 -15.73606,-4.60714 -29.93265,-6.64316 -59.72883,-8.5661 -151.5,47.76171 -151.5,92.9885 0,12.90937 13.50626,13.46275 19.10571,0.7828 37.38222,-84.65211 153.64044,-100.10482 216.06215,-28.71836 26.12233,29.8739 32.49906,51.82688 32.73404,112.69238 0.078,20.19882 0.31936,37.29882 0.53642,38 0.21705,0.70118 0.66294,2.501 0.99086,3.9996 1.3366,6.10814 11.83454,7.49515 16.41597,2.16891 z" />
    </g>
  </g>
</svg>
